<mxfile host="app.diagrams.net" agent="Mozilla/5.0 (Windows NT 10.0; Win64; x64) AppleWebKit/537.36 (KHTML, like Gecko) Chrome/132.0.0.0 Safari/537.36" version="26.0.14">
  <diagram id="R2lEEEUBdFMjLlhIrx00" name="Page-1">
    <mxGraphModel dx="1095" dy="2233" grid="1" gridSize="10" guides="1" tooltips="1" connect="1" arrows="1" fold="1" page="1" pageScale="1" pageWidth="850" pageHeight="1100" math="0" shadow="0" extFonts="Permanent Marker^https://fonts.googleapis.com/css?family=Permanent+Marker">
      <root>
        <mxCell id="0" />
        <mxCell id="1" parent="0" />
        <mxCell id="8Ir0-n3XTpCSbQ5L_XkL-1" value="User" style="whiteSpace=wrap;html=1;align=center;" parent="1" vertex="1">
          <mxGeometry x="75" y="58.5" width="65" height="31.5" as="geometry" />
        </mxCell>
        <mxCell id="8Ir0-n3XTpCSbQ5L_XkL-2" value="Equipment" style="whiteSpace=wrap;html=1;align=center;" parent="1" vertex="1">
          <mxGeometry x="520" y="62" width="65" height="28" as="geometry" />
        </mxCell>
        <mxCell id="8Ir0-n3XTpCSbQ5L_XkL-14" value="UserID" style="ellipse;whiteSpace=wrap;html=1;align=center;fontStyle=4;" parent="1" vertex="1">
          <mxGeometry x="20" y="18.5" width="50" height="30" as="geometry" />
        </mxCell>
        <mxCell id="8Ir0-n3XTpCSbQ5L_XkL-15" value="Name" style="ellipse;whiteSpace=wrap;html=1;align=center;" parent="1" vertex="1">
          <mxGeometry x="25" y="88.5" width="40" height="30" as="geometry" />
        </mxCell>
        <mxCell id="8Ir0-n3XTpCSbQ5L_XkL-16" value="Email" style="ellipse;whiteSpace=wrap;html=1;align=center;" parent="1" vertex="1">
          <mxGeometry x="75" y="18.5" width="40" height="30" as="geometry" />
        </mxCell>
        <mxCell id="8Ir0-n3XTpCSbQ5L_XkL-17" value="Password" style="ellipse;whiteSpace=wrap;html=1;align=center;" parent="1" vertex="1">
          <mxGeometry x="120" y="18.5" width="60" height="30" as="geometry" />
        </mxCell>
        <mxCell id="8Ir0-n3XTpCSbQ5L_XkL-18" value="Role" style="ellipse;whiteSpace=wrap;html=1;align=center;" parent="1" vertex="1">
          <mxGeometry x="30" y="58.5" width="30" height="20" as="geometry" />
        </mxCell>
        <mxCell id="8Ir0-n3XTpCSbQ5L_XkL-19" value="" style="endArrow=none;html=1;rounded=0;exitX=1;exitY=0.5;exitDx=0;exitDy=0;entryX=0;entryY=1;entryDx=0;entryDy=0;" parent="1" source="8Ir0-n3XTpCSbQ5L_XkL-15" target="8Ir0-n3XTpCSbQ5L_XkL-1" edge="1">
          <mxGeometry width="50" height="50" relative="1" as="geometry">
            <mxPoint x="170" y="168.5" as="sourcePoint" />
            <mxPoint x="220" y="118.5" as="targetPoint" />
          </mxGeometry>
        </mxCell>
        <mxCell id="8Ir0-n3XTpCSbQ5L_XkL-20" value="" style="endArrow=none;html=1;rounded=0;exitX=1;exitY=0.5;exitDx=0;exitDy=0;entryX=0;entryY=0.25;entryDx=0;entryDy=0;" parent="1" source="8Ir0-n3XTpCSbQ5L_XkL-18" target="8Ir0-n3XTpCSbQ5L_XkL-1" edge="1">
          <mxGeometry width="50" height="50" relative="1" as="geometry">
            <mxPoint x="75" y="113.5" as="sourcePoint" />
            <mxPoint x="85" y="108.5" as="targetPoint" />
          </mxGeometry>
        </mxCell>
        <mxCell id="8Ir0-n3XTpCSbQ5L_XkL-21" value="" style="endArrow=none;html=1;rounded=0;exitX=1;exitY=1;exitDx=0;exitDy=0;entryX=0;entryY=0;entryDx=0;entryDy=0;" parent="1" source="8Ir0-n3XTpCSbQ5L_XkL-14" target="8Ir0-n3XTpCSbQ5L_XkL-1" edge="1">
          <mxGeometry width="50" height="50" relative="1" as="geometry">
            <mxPoint x="70" y="78.5" as="sourcePoint" />
            <mxPoint x="85" y="78.5" as="targetPoint" />
          </mxGeometry>
        </mxCell>
        <mxCell id="8Ir0-n3XTpCSbQ5L_XkL-22" value="" style="endArrow=none;html=1;rounded=0;exitX=0.5;exitY=1;exitDx=0;exitDy=0;entryX=0.25;entryY=0;entryDx=0;entryDy=0;" parent="1" source="8Ir0-n3XTpCSbQ5L_XkL-16" target="8Ir0-n3XTpCSbQ5L_XkL-1" edge="1">
          <mxGeometry width="50" height="50" relative="1" as="geometry">
            <mxPoint x="73" y="54.5" as="sourcePoint" />
            <mxPoint x="85" y="68.5" as="targetPoint" />
          </mxGeometry>
        </mxCell>
        <mxCell id="8Ir0-n3XTpCSbQ5L_XkL-23" value="" style="endArrow=none;html=1;rounded=0;exitX=0.5;exitY=1;exitDx=0;exitDy=0;entryX=0.75;entryY=0;entryDx=0;entryDy=0;" parent="1" source="8Ir0-n3XTpCSbQ5L_XkL-17" target="8Ir0-n3XTpCSbQ5L_XkL-1" edge="1">
          <mxGeometry width="50" height="50" relative="1" as="geometry">
            <mxPoint x="105" y="58.5" as="sourcePoint" />
            <mxPoint x="110" y="68.5" as="targetPoint" />
          </mxGeometry>
        </mxCell>
        <mxCell id="8Ir0-n3XTpCSbQ5L_XkL-25" value="EquipmentID" style="ellipse;whiteSpace=wrap;html=1;align=center;fontStyle=4;" parent="1" vertex="1">
          <mxGeometry x="450" y="-36" width="80" height="40" as="geometry" />
        </mxCell>
        <mxCell id="8Ir0-n3XTpCSbQ5L_XkL-26" value="Name" style="ellipse;whiteSpace=wrap;html=1;align=center;" parent="1" vertex="1">
          <mxGeometry x="425" y="42" width="40" height="30" as="geometry" />
        </mxCell>
        <mxCell id="8Ir0-n3XTpCSbQ5L_XkL-27" value="Category" style="ellipse;whiteSpace=wrap;html=1;align=center;" parent="1" vertex="1">
          <mxGeometry x="455" y="18.5" width="50" height="30" as="geometry" />
        </mxCell>
        <mxCell id="8Ir0-n3XTpCSbQ5L_XkL-28" value="Specifications" style="ellipse;whiteSpace=wrap;html=1;align=center;" parent="1" vertex="1">
          <mxGeometry x="515" y="-10" width="90" height="38" as="geometry" />
        </mxCell>
        <mxCell id="8Ir0-n3XTpCSbQ5L_XkL-29" value="Status" style="ellipse;whiteSpace=wrap;html=1;align=center;" parent="1" vertex="1">
          <mxGeometry x="585" y="23.75" width="50" height="28" as="geometry" />
        </mxCell>
        <mxCell id="8Ir0-n3XTpCSbQ5L_XkL-30" value="" style="endArrow=none;html=1;rounded=0;entryX=1;entryY=0.5;entryDx=0;entryDy=0;exitX=0;exitY=0.25;exitDx=0;exitDy=0;" parent="1" source="8Ir0-n3XTpCSbQ5L_XkL-2" target="8Ir0-n3XTpCSbQ5L_XkL-26" edge="1">
          <mxGeometry width="50" height="50" relative="1" as="geometry">
            <mxPoint x="405" y="112" as="sourcePoint" />
            <mxPoint x="455" y="62" as="targetPoint" />
          </mxGeometry>
        </mxCell>
        <mxCell id="8Ir0-n3XTpCSbQ5L_XkL-31" value="" style="endArrow=none;html=1;rounded=0;entryX=1;entryY=1;entryDx=0;entryDy=0;exitX=0.25;exitY=0;exitDx=0;exitDy=0;" parent="1" source="8Ir0-n3XTpCSbQ5L_XkL-2" target="8Ir0-n3XTpCSbQ5L_XkL-27" edge="1">
          <mxGeometry width="50" height="50" relative="1" as="geometry">
            <mxPoint x="520" y="72" as="sourcePoint" />
            <mxPoint x="510" y="52" as="targetPoint" />
          </mxGeometry>
        </mxCell>
        <mxCell id="8Ir0-n3XTpCSbQ5L_XkL-32" value="" style="endArrow=none;html=1;rounded=0;entryX=0.5;entryY=1;entryDx=0;entryDy=0;exitX=0.5;exitY=0;exitDx=0;exitDy=0;" parent="1" source="8Ir0-n3XTpCSbQ5L_XkL-2" target="8Ir0-n3XTpCSbQ5L_XkL-25" edge="1">
          <mxGeometry width="50" height="50" relative="1" as="geometry">
            <mxPoint x="545" y="72" as="sourcePoint" />
            <mxPoint x="570" y="52" as="targetPoint" />
          </mxGeometry>
        </mxCell>
        <mxCell id="8Ir0-n3XTpCSbQ5L_XkL-33" value="" style="endArrow=none;html=1;rounded=0;entryX=0.5;entryY=1;entryDx=0;entryDy=0;exitX=0.75;exitY=0;exitDx=0;exitDy=0;" parent="1" source="8Ir0-n3XTpCSbQ5L_XkL-2" target="8Ir0-n3XTpCSbQ5L_XkL-28" edge="1">
          <mxGeometry width="50" height="50" relative="1" as="geometry">
            <mxPoint x="570" y="72" as="sourcePoint" />
            <mxPoint x="622" y="51" as="targetPoint" />
          </mxGeometry>
        </mxCell>
        <mxCell id="8Ir0-n3XTpCSbQ5L_XkL-34" value="" style="endArrow=none;html=1;rounded=0;entryX=0;entryY=1;entryDx=0;entryDy=0;exitX=1;exitY=0;exitDx=0;exitDy=0;" parent="1" source="8Ir0-n3XTpCSbQ5L_XkL-2" target="8Ir0-n3XTpCSbQ5L_XkL-29" edge="1">
          <mxGeometry width="50" height="50" relative="1" as="geometry">
            <mxPoint x="595" y="82" as="sourcePoint" />
            <mxPoint x="610" y="83" as="targetPoint" />
          </mxGeometry>
        </mxCell>
        <mxCell id="8Ir0-n3XTpCSbQ5L_XkL-38" value="StartDate" style="ellipse;whiteSpace=wrap;html=1;align=center;" parent="1" vertex="1">
          <mxGeometry x="270" y="-6.25" width="60" height="30" as="geometry" />
        </mxCell>
        <mxCell id="8Ir0-n3XTpCSbQ5L_XkL-39" value="EndDate" style="ellipse;whiteSpace=wrap;html=1;align=center;" parent="1" vertex="1">
          <mxGeometry x="220" y="18.5" width="60" height="30" as="geometry" />
        </mxCell>
        <mxCell id="8Ir0-n3XTpCSbQ5L_XkL-40" value="RequestDate" style="ellipse;whiteSpace=wrap;html=1;align=center;" parent="1" vertex="1">
          <mxGeometry x="300" y="-50" width="80" height="30" as="geometry" />
        </mxCell>
        <mxCell id="8Ir0-n3XTpCSbQ5L_XkL-41" value="Status" style="ellipse;whiteSpace=wrap;html=1;align=center;" parent="1" vertex="1">
          <mxGeometry x="350" y="-11.5" width="50" height="30" as="geometry" />
        </mxCell>
        <mxCell id="8Ir0-n3XTpCSbQ5L_XkL-49" value="" style="endArrow=none;html=1;rounded=0;entryX=0.5;entryY=1;entryDx=0;entryDy=0;exitX=0.5;exitY=0;exitDx=0;exitDy=0;" parent="1" source="8Ir0-n3XTpCSbQ5L_XkL-62" target="8Ir0-n3XTpCSbQ5L_XkL-38" edge="1">
          <mxGeometry width="50" height="50" relative="1" as="geometry">
            <mxPoint x="100" y="370" as="sourcePoint" />
            <mxPoint x="220" y="513" as="targetPoint" />
          </mxGeometry>
        </mxCell>
        <mxCell id="8Ir0-n3XTpCSbQ5L_XkL-50" value="" style="endArrow=none;html=1;rounded=0;entryX=0.5;entryY=1;entryDx=0;entryDy=0;exitX=0;exitY=0;exitDx=0;exitDy=0;" parent="1" source="8Ir0-n3XTpCSbQ5L_XkL-62" target="8Ir0-n3XTpCSbQ5L_XkL-39" edge="1">
          <mxGeometry width="50" height="50" relative="1" as="geometry">
            <mxPoint x="120.01999999999998" y="361.65999999999997" as="sourcePoint" />
            <mxPoint x="50" y="350" as="targetPoint" />
          </mxGeometry>
        </mxCell>
        <mxCell id="8Ir0-n3XTpCSbQ5L_XkL-51" value="" style="endArrow=none;html=1;rounded=0;entryX=0.5;entryY=1;entryDx=0;entryDy=0;exitX=0.5;exitY=0;exitDx=0;exitDy=0;" parent="1" source="8Ir0-n3XTpCSbQ5L_XkL-62" target="8Ir0-n3XTpCSbQ5L_XkL-40" edge="1">
          <mxGeometry width="50" height="50" relative="1" as="geometry">
            <mxPoint x="149.66000000000008" y="362.74" as="sourcePoint" />
            <mxPoint x="118" y="350" as="targetPoint" />
          </mxGeometry>
        </mxCell>
        <mxCell id="8Ir0-n3XTpCSbQ5L_XkL-52" value="" style="endArrow=none;html=1;rounded=0;entryX=0.5;entryY=1;entryDx=0;entryDy=0;exitX=1;exitY=0;exitDx=0;exitDy=0;" parent="1" source="8Ir0-n3XTpCSbQ5L_XkL-62" target="8Ir0-n3XTpCSbQ5L_XkL-41" edge="1">
          <mxGeometry width="50" height="50" relative="1" as="geometry">
            <mxPoint x="165" y="370" as="sourcePoint" />
            <mxPoint x="198" y="350" as="targetPoint" />
          </mxGeometry>
        </mxCell>
        <mxCell id="8Ir0-n3XTpCSbQ5L_XkL-59" value="Admin" style="whiteSpace=wrap;html=1;align=center;" parent="1" vertex="1">
          <mxGeometry x="290" y="180" width="70" height="30" as="geometry" />
        </mxCell>
        <mxCell id="8Ir0-n3XTpCSbQ5L_XkL-62" value="Reserves" style="shape=rhombus;perimeter=rhombusPerimeter;whiteSpace=wrap;html=1;align=center;" parent="1" vertex="1">
          <mxGeometry x="270" y="51.75" width="110" height="45" as="geometry" />
        </mxCell>
        <mxCell id="8Ir0-n3XTpCSbQ5L_XkL-63" value="" style="endArrow=classic;html=1;rounded=0;entryX=0.5;entryY=0;entryDx=0;entryDy=0;exitX=0.5;exitY=1;exitDx=0;exitDy=0;" parent="1" source="8Ir0-n3XTpCSbQ5L_XkL-62" target="8Ir0-n3XTpCSbQ5L_XkL-59" edge="1">
          <mxGeometry width="50" height="50" relative="1" as="geometry">
            <mxPoint x="360" y="260" as="sourcePoint" />
            <mxPoint x="410" y="210" as="targetPoint" />
          </mxGeometry>
        </mxCell>
        <mxCell id="8Ir0-n3XTpCSbQ5L_XkL-65" value="M" style="text;html=1;align=center;verticalAlign=middle;resizable=0;points=[];autosize=1;strokeColor=none;fillColor=none;" parent="1" vertex="1">
          <mxGeometry x="330" y="150" width="30" height="30" as="geometry" />
        </mxCell>
        <mxCell id="dVXzLSEpgu7YQTHh3wm8-3" value="" style="endArrow=none;html=1;rounded=0;entryX=0;entryY=0.5;entryDx=0;entryDy=0;exitX=1;exitY=0.5;exitDx=0;exitDy=0;" parent="1" source="8Ir0-n3XTpCSbQ5L_XkL-62" target="8Ir0-n3XTpCSbQ5L_XkL-2" edge="1">
          <mxGeometry width="50" height="50" relative="1" as="geometry">
            <mxPoint x="370" y="200" as="sourcePoint" />
            <mxPoint x="420" y="150" as="targetPoint" />
          </mxGeometry>
        </mxCell>
        <mxCell id="dVXzLSEpgu7YQTHh3wm8-4" value="" style="endArrow=none;html=1;rounded=0;entryX=0;entryY=0.5;entryDx=0;entryDy=0;exitX=1;exitY=0.5;exitDx=0;exitDy=0;" parent="1" source="8Ir0-n3XTpCSbQ5L_XkL-1" target="8Ir0-n3XTpCSbQ5L_XkL-62" edge="1">
          <mxGeometry width="50" height="50" relative="1" as="geometry">
            <mxPoint x="180" y="120" as="sourcePoint" />
            <mxPoint x="230" y="70" as="targetPoint" />
          </mxGeometry>
        </mxCell>
        <mxCell id="dVXzLSEpgu7YQTHh3wm8-5" value="M" style="text;html=1;align=center;verticalAlign=middle;whiteSpace=wrap;rounded=0;" parent="1" vertex="1">
          <mxGeometry x="140" y="72" width="30" height="20" as="geometry" />
        </mxCell>
        <mxCell id="dVXzLSEpgu7YQTHh3wm8-6" value="M" style="text;html=1;align=center;verticalAlign=middle;whiteSpace=wrap;rounded=0;" parent="1" vertex="1">
          <mxGeometry x="495" y="78.5" width="20" height="20" as="geometry" />
        </mxCell>
        <mxCell id="dVXzLSEpgu7YQTHh3wm8-7" value="Supplier" style="whiteSpace=wrap;html=1;align=center;" parent="1" vertex="1">
          <mxGeometry x="800" y="61" width="70" height="30" as="geometry" />
        </mxCell>
        <mxCell id="dVXzLSEpgu7YQTHh3wm8-9" style="endArrow=none;edgeStyle=orthogonalEdgeStyle;rounded=0;orthogonalLoop=1;jettySize=auto;html=1;exitX=1;exitY=0.5;exitDx=0;exitDy=0;entryX=0;entryY=0.5;entryDx=0;entryDy=0;" parent="1" source="dVXzLSEpgu7YQTHh3wm8-8" target="dVXzLSEpgu7YQTHh3wm8-7" edge="1">
          <mxGeometry relative="1" as="geometry" />
        </mxCell>
        <mxCell id="dVXzLSEpgu7YQTHh3wm8-11" style="endArrow=none;rounded=0;orthogonalLoop=1;jettySize=auto;html=1;exitX=0;exitY=0.5;exitDx=0;exitDy=0;entryX=1;entryY=0.5;entryDx=0;entryDy=0;" parent="1" source="dVXzLSEpgu7YQTHh3wm8-8" target="8Ir0-n3XTpCSbQ5L_XkL-2" edge="1">
          <mxGeometry relative="1" as="geometry" />
        </mxCell>
        <mxCell id="dVXzLSEpgu7YQTHh3wm8-8" value="Supplied" style="shape=rhombus;perimeter=rhombusPerimeter;whiteSpace=wrap;html=1;align=center;" parent="1" vertex="1">
          <mxGeometry x="640" y="53.5" width="110" height="45" as="geometry" />
        </mxCell>
        <mxCell id="dVXzLSEpgu7YQTHh3wm8-12" value="Name" style="ellipse;whiteSpace=wrap;html=1;align=center;" parent="1" vertex="1">
          <mxGeometry x="790" y="4" width="40" height="30" as="geometry" />
        </mxCell>
        <mxCell id="dVXzLSEpgu7YQTHh3wm8-15" value="" style="endArrow=none;html=1;rounded=0;entryX=0.433;entryY=0.967;entryDx=0;entryDy=0;exitX=0.75;exitY=0;exitDx=0;exitDy=0;entryPerimeter=0;" parent="1" source="dVXzLSEpgu7YQTHh3wm8-7" target="dVXzLSEpgu7YQTHh3wm8-32" edge="1">
          <mxGeometry width="50" height="50" relative="1" as="geometry">
            <mxPoint x="973" y="146.5" as="sourcePoint" />
            <mxPoint x="870" y="34" as="targetPoint" />
          </mxGeometry>
        </mxCell>
        <mxCell id="dVXzLSEpgu7YQTHh3wm8-16" value="" style="endArrow=none;html=1;rounded=0;entryX=0.5;entryY=1;entryDx=0;entryDy=0;exitX=0.25;exitY=0;exitDx=0;exitDy=0;" parent="1" source="dVXzLSEpgu7YQTHh3wm8-7" target="dVXzLSEpgu7YQTHh3wm8-12" edge="1">
          <mxGeometry width="50" height="50" relative="1" as="geometry">
            <mxPoint x="773" y="42" as="sourcePoint" />
            <mxPoint x="710" y="-16" as="targetPoint" />
          </mxGeometry>
        </mxCell>
        <mxCell id="dVXzLSEpgu7YQTHh3wm8-17" value="M" style="text;html=1;align=center;verticalAlign=middle;whiteSpace=wrap;rounded=0;" parent="1" vertex="1">
          <mxGeometry x="780" y="78.5" width="20" height="20" as="geometry" />
        </mxCell>
        <mxCell id="dVXzLSEpgu7YQTHh3wm8-18" value="M" style="text;html=1;align=center;verticalAlign=middle;whiteSpace=wrap;rounded=0;" parent="1" vertex="1">
          <mxGeometry x="590" y="76.75" width="20" height="20" as="geometry" />
        </mxCell>
        <mxCell id="dVXzLSEpgu7YQTHh3wm8-19" value="Quantity" style="ellipse;whiteSpace=wrap;html=1;align=center;" parent="1" vertex="1">
          <mxGeometry x="515" y="118.5" width="90" height="38" as="geometry" />
        </mxCell>
        <mxCell id="dVXzLSEpgu7YQTHh3wm8-20" value="" style="endArrow=none;html=1;rounded=0;entryX=0.5;entryY=1;entryDx=0;entryDy=0;exitX=0.5;exitY=0;exitDx=0;exitDy=0;" parent="1" source="dVXzLSEpgu7YQTHh3wm8-19" target="8Ir0-n3XTpCSbQ5L_XkL-2" edge="1">
          <mxGeometry width="50" height="50" relative="1" as="geometry">
            <mxPoint x="610" y="140" as="sourcePoint" />
            <mxPoint x="601" y="106" as="targetPoint" />
          </mxGeometry>
        </mxCell>
        <mxCell id="dVXzLSEpgu7YQTHh3wm8-21" value="Quantity" style="ellipse;whiteSpace=wrap;html=1;align=center;" parent="1" vertex="1">
          <mxGeometry x="670" y="-6.25" width="90" height="38" as="geometry" />
        </mxCell>
        <mxCell id="dVXzLSEpgu7YQTHh3wm8-22" value="" style="endArrow=none;html=1;rounded=0;entryX=0.5;entryY=0;entryDx=0;entryDy=0;exitX=0.5;exitY=1;exitDx=0;exitDy=0;" parent="1" source="dVXzLSEpgu7YQTHh3wm8-21" target="dVXzLSEpgu7YQTHh3wm8-8" edge="1">
          <mxGeometry width="50" height="50" relative="1" as="geometry">
            <mxPoint x="785" y="-18.5" as="sourcePoint" />
            <mxPoint x="728" y="-68.5" as="targetPoint" />
          </mxGeometry>
        </mxCell>
        <mxCell id="dVXzLSEpgu7YQTHh3wm8-23" value="Date_supplied" style="ellipse;whiteSpace=wrap;html=1;align=center;" parent="1" vertex="1">
          <mxGeometry x="680" y="112" width="90" height="38" as="geometry" />
        </mxCell>
        <mxCell id="dVXzLSEpgu7YQTHh3wm8-24" value="" style="endArrow=none;html=1;rounded=0;entryX=1;entryY=1;entryDx=0;entryDy=0;exitX=0.5;exitY=0;exitDx=0;exitDy=0;" parent="1" source="dVXzLSEpgu7YQTHh3wm8-23" target="dVXzLSEpgu7YQTHh3wm8-8" edge="1">
          <mxGeometry width="50" height="50" relative="1" as="geometry">
            <mxPoint x="795" y="154.25" as="sourcePoint" />
            <mxPoint x="738" y="104.25" as="targetPoint" />
          </mxGeometry>
        </mxCell>
        <mxCell id="dVXzLSEpgu7YQTHh3wm8-25" value="ID" style="ellipse;whiteSpace=wrap;html=1;align=center;fontStyle=4;" parent="1" vertex="1">
          <mxGeometry x="300" y="220" width="50" height="30" as="geometry" />
        </mxCell>
        <mxCell id="dVXzLSEpgu7YQTHh3wm8-26" value="Name" style="ellipse;whiteSpace=wrap;html=1;align=center;" parent="1" vertex="1">
          <mxGeometry x="240" y="200" width="40" height="30" as="geometry" />
        </mxCell>
        <mxCell id="dVXzLSEpgu7YQTHh3wm8-28" value="" style="endArrow=none;html=1;rounded=0;exitX=1;exitY=0;exitDx=0;exitDy=0;entryX=0;entryY=0.5;entryDx=0;entryDy=0;" parent="1" source="dVXzLSEpgu7YQTHh3wm8-26" target="8Ir0-n3XTpCSbQ5L_XkL-59" edge="1">
          <mxGeometry width="50" height="50" relative="1" as="geometry">
            <mxPoint x="425" y="400" as="sourcePoint" />
            <mxPoint x="330" y="321.5" as="targetPoint" />
          </mxGeometry>
        </mxCell>
        <mxCell id="dVXzLSEpgu7YQTHh3wm8-30" value="" style="endArrow=none;html=1;rounded=0;exitX=0.5;exitY=0;exitDx=0;exitDy=0;entryX=0.5;entryY=1;entryDx=0;entryDy=0;" parent="1" source="dVXzLSEpgu7YQTHh3wm8-25" target="8Ir0-n3XTpCSbQ5L_XkL-59" edge="1">
          <mxGeometry width="50" height="50" relative="1" as="geometry">
            <mxPoint x="325" y="310" as="sourcePoint" />
            <mxPoint x="330" y="290.5" as="targetPoint" />
          </mxGeometry>
        </mxCell>
        <mxCell id="dVXzLSEpgu7YQTHh3wm8-32" value="SupplierID" style="ellipse;whiteSpace=wrap;html=1;align=center;fontStyle=4;" parent="1" vertex="1">
          <mxGeometry x="850" y="8.5" width="70" height="40" as="geometry" />
        </mxCell>
      </root>
    </mxGraphModel>
  </diagram>
</mxfile>
